<svg width="50" height="48" viewBox="0 0 50 48" fill="#FFFFFF" xmlns="http://www.w3.org/2000/svg">
<path d="M41.7347 27.7231C40.7582 27.5796 39.9867 27.4662 39.2821 26.7619C38.7059 26.1857 38.3113 25.2749 37.8542 24.22C37.2301 22.7796 36.5226 21.1471 35.0939 19.7181C34.4043 19.0289 33.5431 18.5367 32.5993 18.2923C31.6068 18.0516 30.7429 18.208 30.2291 18.722C30.0424 18.9086 28.5022 20.6458 31.8697 24.098C32.2486 24.4863 32.3508 24.8981 32.1653 25.2887C31.9751 25.6891 31.4559 26.0644 30.8104 26.0531L12.7252 8.54854L13.1501 8.12422C13.2502 8.02416 13.3107 7.89122 13.3203 7.75C13.3286 7.62949 13.4985 4.78457 11.3329 3.58731C10.7788 3.28106 10.0878 3.11934 9.41952 2.96289C8.77752 2.8126 8.11366 2.65723 7.691 2.39151C7.43162 2.22793 7.12889 2.02393 6.80662 1.80801C5.09295 0.656545 4.216 0.129885 3.58045 0.273244C2.57713 0.499611 1.945 1.54278 1.87616 1.66104C1.82063 1.75648 1.79321 1.86567 1.79704 1.97603C1.80088 2.08638 1.83582 2.19341 1.89784 2.28477L2.22889 2.77305L1.59539 3.40645L1.48856 3.29961C1.37868 3.18972 1.22964 3.12797 1.07424 3.12797C0.918834 3.12796 0.769791 3.18968 0.659897 3.29956C0.550003 3.40944 0.48826 3.55848 0.488251 3.71388C0.488242 3.86929 0.549967 4.01833 0.659848 4.12822L1.77674 5.24473C1.88693 5.35313 2.03549 5.41361 2.19006 5.41298C2.34463 5.41235 2.4927 5.35067 2.602 5.24137C2.7113 5.13207 2.77298 4.98401 2.77361 4.82943C2.77424 4.67486 2.71376 4.5263 2.60536 4.41611L2.42401 4.23438L2.89881 3.75957L3.97459 5.34541L3.30789 6.01172L3.20106 5.90528C3.14665 5.85086 3.08206 5.8077 3.01097 5.77825C2.93988 5.74879 2.86369 5.73363 2.78674 5.73363C2.70979 5.73362 2.63359 5.74878 2.5625 5.77822C2.49141 5.80766 2.42681 5.85082 2.3724 5.90523C2.31798 5.95963 2.27482 6.02423 2.24537 6.09532C2.21592 6.1664 2.20076 6.2426 2.20075 6.31955C2.20075 6.3965 2.2159 6.47269 2.24534 6.54378C2.27478 6.61488 2.31794 6.67947 2.37235 6.73389L3.48924 7.85078C3.59914 7.96068 3.74818 8.02241 3.9036 8.02241C4.05901 8.02241 4.20806 7.96068 4.31795 7.85078C4.42785 7.74089 4.48958 7.59184 4.48958 7.43643C4.48958 7.28101 4.42785 7.13197 4.31795 7.02207L4.13661 6.84082L4.64442 6.33301L5.72049 7.91817L5.02049 8.61817L4.91356 8.51172C4.85931 8.45658 4.79469 8.41273 4.72341 8.3827C4.65213 8.35266 4.57561 8.33704 4.49826 8.33672C4.42092 8.33641 4.34427 8.35141 4.27275 8.38086C4.20123 8.41032 4.13625 8.45364 4.08156 8.50833C4.02686 8.56303 3.98354 8.62801 3.95409 8.69953C3.92463 8.77105 3.90963 8.84769 3.90995 8.92504C3.91026 9.00239 3.92589 9.07891 3.95592 9.15018C3.98596 9.22146 4.02981 9.28609 4.08495 9.34033L5.20184 10.4571C5.25609 10.5123 5.32071 10.5561 5.39199 10.5862C5.46327 10.6162 5.53979 10.6318 5.61713 10.6321C5.69448 10.6324 5.77113 10.6174 5.84265 10.588C5.91417 10.5585 5.97915 10.5152 6.03384 10.4605C6.08853 10.4058 6.13186 10.3408 6.16131 10.2693C6.19077 10.1978 6.20577 10.1212 6.20545 10.0438C6.20514 9.96647 6.18951 9.88995 6.15948 9.81867C6.12944 9.74739 6.08559 9.68276 6.03045 9.62852L5.84959 9.44678L6.3909 8.90547L7.46678 10.4909L6.80789 11.1497L6.70106 11.0429C6.64681 10.9877 6.58219 10.9439 6.51091 10.9138C6.43963 10.8838 6.36311 10.8682 6.28576 10.8679C6.20842 10.8676 6.13177 10.8826 6.06025 10.912C5.98873 10.9415 5.92375 10.9848 5.86906 11.0395C5.81436 11.0942 5.77104 11.1592 5.74159 11.2307C5.71213 11.3022 5.69713 11.3788 5.69745 11.4562C5.69776 11.5335 5.71339 11.6101 5.74342 11.6813C5.77346 11.7526 5.81731 11.8172 5.87245 11.8715L6.98924 12.9884C7.09914 13.0983 7.24818 13.16 7.4036 13.16C7.55901 13.16 7.70806 13.0983 7.81795 12.9884C7.92785 12.8785 7.98958 12.7294 7.98958 12.574C7.98958 12.4186 7.92785 12.2696 7.81795 12.1597L7.63612 11.9785L8.13631 11.4784L8.40731 11.8778C8.45582 11.9492 8.51949 12.0089 8.59377 12.0528C8.66804 12.0967 8.7511 12.1237 8.837 12.1317C8.85555 12.1335 8.8741 12.1344 8.89256 12.1344C9.04781 12.1343 9.19669 12.0727 9.30653 11.963L10.078 11.193L24.3017 25.8896C24.3634 26.5883 23.9668 27.1575 23.543 27.3588C23.1523 27.5443 22.7404 27.4421 22.3521 27.0632C18.8996 23.6958 17.1629 25.2359 16.9761 25.4226C15.9638 26.4349 16.4389 28.7536 17.9722 30.2874C19.3772 31.6925 21.5046 32.9102 23.3814 33.9844C24.7559 34.771 26.0542 35.5141 26.6537 36.1133C27.3968 36.8564 27.8088 37.99 28.2858 39.3027C28.9674 41.1777 29.7399 43.3038 31.7411 45.1656C33.5879 46.8837 35.5339 47.7483 37.5446 47.7483C38.0636 47.7474 38.581 47.6912 39.0881 47.5809C41.2056 47.1246 43.3849 45.7534 45.7488 43.3891C47.9731 41.1647 49.1463 39.1972 49.4407 37.1971C49.7858 34.8523 48.888 32.5671 46.6959 30.2108C44.8008 28.1737 43.1008 27.9239 41.7347 27.7231V27.7231ZM8.97928 10.6333L3.09647 1.96416C3.27352 1.75108 3.53592 1.49776 3.81063 1.42324C4.1953 1.46533 5.4661 2.31895 6.1535 2.78067C6.48241 3.00166 6.79305 3.21035 7.06746 3.38301C7.65623 3.75332 8.41678 3.93164 9.15272 4.10371C9.74334 4.24199 10.3539 4.38496 10.7663 4.6127C12 5.29473 12.1432 6.89336 12.1536 7.46328L8.97928 10.6333ZM11.8959 9.37666L35.9903 32.6977L34.2279 34.46L10.9065 10.3649L11.8959 9.37666ZM38.7597 32.8068L38.2817 33.2849L37.6608 32.684L38.1491 32.1957C38.2163 32.1286 38.3074 32.091 38.4023 32.091C38.4973 32.091 38.5883 32.1286 38.6555 32.1957L38.7597 32.3008C38.8267 32.368 38.8643 32.459 38.8643 32.5538C38.8643 32.6487 38.8267 32.7396 38.7597 32.8068ZM37.4529 34.1137L35.6445 35.9231L35.0435 35.3022L36.833 33.5128L37.4529 34.1137ZM40.8756 35.1607L42.6281 36.9133L38.4432 41.0981L36.6907 39.3456L40.8756 35.1607ZM37.0268 37.3522L36.4587 36.7651L38.2951 34.9292L38.8821 35.4974L37.0268 37.3522ZM33.7261 36.6189L34.2143 36.1307L34.8153 36.7515L34.3373 37.23C34.2701 37.297 34.179 37.3346 34.0841 37.3346C33.9891 37.3346 33.8981 37.297 33.8308 37.23L33.7263 37.1255C33.6931 37.0922 33.6667 37.0528 33.6487 37.0093C33.6307 36.9659 33.6215 36.9193 33.6215 36.8723C33.6215 36.8252 33.6307 36.7787 33.6487 36.7352C33.6667 36.6918 33.6931 36.6523 33.7263 36.619L33.7261 36.6189ZM48.2815 37.0268C48.0291 38.7413 46.9297 40.5515 44.9204 42.5607C42.7203 44.7608 40.7319 46.0283 38.8414 46.4356C36.6478 46.9085 34.5865 46.2123 32.5395 44.308C30.7451 42.6381 30.0238 40.6539 29.3875 38.9028C28.8846 37.519 28.4096 36.212 27.4826 35.2851C26.7723 34.5748 25.4709 33.83 23.9638 32.9673C22.1506 31.9295 20.0954 30.7532 18.801 29.4588C17.6406 28.2984 17.368 26.6878 17.8049 26.2512C18.0658 25.9903 19.3107 25.7336 21.5341 27.9022C22.2717 28.6215 23.2106 28.814 24.0458 28.4174C24.345 28.2678 24.6118 28.0607 24.8308 27.8079C25.0498 27.5551 25.2168 27.2615 25.3222 26.944L33.399 35.2888L32.8974 35.7903C32.7554 35.9324 32.6427 36.1011 32.5658 36.2867C32.4889 36.4723 32.4493 36.6713 32.4493 36.8722C32.4493 37.0731 32.4889 37.272 32.5658 37.4577C32.6427 37.6433 32.7554 37.8119 32.8974 37.954L33.0018 38.0585C33.289 38.345 33.6781 38.5059 34.0837 38.5059C34.4894 38.5059 34.8784 38.345 35.1656 38.0585L35.6302 37.5939L36.1983 38.181L35.4479 38.9313C35.3935 38.9857 35.3503 39.0503 35.3209 39.1214C35.2914 39.1925 35.2763 39.2687 35.2763 39.3456C35.2763 39.4226 35.2914 39.4988 35.3209 39.5699C35.3503 39.641 35.3935 39.7056 35.4479 39.76L38.0291 42.3411C38.0835 42.3955 38.1481 42.4387 38.2192 42.4682C38.2903 42.4976 38.3665 42.5128 38.4434 42.5128C38.5204 42.5128 38.5966 42.4976 38.6677 42.4682C38.7388 42.4387 38.8034 42.3955 38.8578 42.3411L43.8713 37.3276C43.9811 37.2178 44.0429 37.0687 44.0429 36.9133C44.0429 36.7579 43.9811 36.6089 43.8713 36.499L41.29 33.9178C41.1801 33.8079 41.0311 33.7462 40.8757 33.7462C40.7203 33.7462 40.5713 33.8079 40.4614 33.9178L39.711 34.6682L39.1241 34.1L39.5887 33.6355C39.8752 33.3483 40.0361 32.9592 40.0361 32.5536C40.0361 32.1479 39.8752 31.7588 39.5887 31.4717L39.4842 31.3673C39.197 31.0808 38.808 30.9199 38.4024 30.9199C37.9968 30.9199 37.6077 31.0808 37.3206 31.3673L36.819 31.8688L31.8288 27.0394C32.4361 26.8169 32.935 26.3704 33.2232 25.7914C33.6199 24.9562 33.4273 24.0172 32.708 23.2797C30.5394 21.0564 30.7962 19.8114 31.0576 19.5506C31.2693 19.3389 31.7541 19.2932 32.3229 19.4312C33.0582 19.6234 33.7288 20.0086 34.2651 20.5471C35.536 21.8179 36.1963 23.3416 36.7788 24.6859C37.2626 25.8022 37.7195 26.8566 38.4533 27.5905C39.4321 28.5692 40.5161 28.7285 41.5644 28.8828C42.8715 29.0748 44.2231 29.2734 45.8383 31.0096C47.7724 33.0885 48.5717 35.0567 48.2817 37.0268H48.2815Z" fill="white"/>
</svg>
