<svg width="50" height="52" viewBox="0 0 50 52" fill="#FFFFFF" xmlns="http://www.w3.org/2000/svg">
<path d="M21.4781 36.5792C23.3327 34.6545 23.3327 31.5228 21.4781 29.5982C21.0533 29.1574 20.5587 28.8083 20.008 28.5604C19.637 28.3936 19.2055 28.5703 19.0447 28.9555C18.8838 29.3406 19.0543 29.7882 19.4253 29.9552C19.8061 30.1266 20.1483 30.3681 20.4421 30.673C21.7258 32.0051 21.7258 34.1722 20.4422 35.5043C19.8205 36.1495 18.9938 36.5048 18.1144 36.5048C17.235 36.5048 16.4084 36.1495 15.7866 35.5043C15.1649 34.859 14.8224 34.0011 14.8224 33.0887C14.8224 32.1762 15.1649 31.3184 15.7867 30.673C16.0838 30.3647 16.43 30.1213 16.8158 29.9496C17.1876 29.7842 17.3596 29.3373 17.2003 28.9515C17.0409 28.5658 16.6106 28.387 16.2385 28.5526C15.6806 28.8008 15.1802 29.1526 14.7509 29.5982C13.8524 30.5305 13.3576 31.7701 13.3576 33.0887C13.3576 34.4072 13.8523 35.6468 14.7509 36.5792C15.6493 37.5115 16.8438 38.025 18.1144 38.025C19.385 38.0249 20.5796 37.5115 21.4781 36.5792Z" fill="#FFFFFF"/>
<path d="M49.7851 6.77566L49.3738 6.34925C49.637 6.02797 49.7964 5.62462 49.8214 5.19727C49.8545 4.63625 49.6535 4.08668 49.2705 3.68922L48.9497 3.35661C48.6639 3.05978 48.2002 3.05978 47.9144 3.35672C47.628 3.65354 47.628 4.13482 47.9144 4.43154L48.2346 4.76406C48.3535 4.88708 48.3634 5.03047 48.3592 5.10505C48.3549 5.17962 48.328 5.32071 48.196 5.42793L42.5145 10.0422L40.3232 7.76811L44.7696 1.87247C44.8729 1.73546 45.0088 1.70738 45.0807 1.70293C45.1518 1.69786 45.2908 1.70911 45.4093 1.83214L45.6588 2.09106C45.9449 2.38789 46.4086 2.38789 46.6946 2.09117C46.9807 1.79434 46.9807 1.31317 46.6947 1.01634L46.4452 0.757308C46.0622 0.35995 45.5342 0.151491 44.9919 0.185542C44.58 0.211485 44.1913 0.377077 43.8817 0.649888L43.4708 0.223545C43.1848 -0.0733856 42.7211 -0.0732841 42.435 0.223545C42.149 0.520374 42.149 1.00164 42.4351 1.29837L42.944 1.82646L42.3099 2.66729L41.9215 2.26426C41.6355 1.96743 41.1717 1.96733 40.8858 2.26426C40.5996 2.56109 40.5996 3.04226 40.8857 3.33908L41.4003 3.87326L40.7662 4.71398L40.4765 4.4133C40.1905 4.11647 39.7267 4.11627 39.4408 4.4132C39.1546 4.71003 39.1546 5.19132 39.4407 5.48811L39.8568 5.91995L39.0765 6.95453C38.8677 7.23151 38.7803 7.57028 38.8079 7.89925L27.104 19.6033C25.6214 18.1532 23.6981 17.357 21.6545 17.357C21.6407 17.357 21.6269 17.357 21.6131 17.3571C19.5235 17.3681 17.5751 18.2184 16.1271 19.7516C15.4929 20.4231 14.9817 21.194 14.6077 22.0428C13.935 23.5692 12.4641 24.5879 10.8603 24.6381C8.01186 24.7271 5.327 25.9215 3.30044 28.0011C1.18022 30.177 0.0079564 33.0937 -0.000442053 36.214C-0.00903582 39.3956 1.18081 42.3873 3.34975 44.6381L6.98539 48.4108C8.91615 50.4146 11.478 51.6368 14.199 51.8528C14.49 51.8759 14.7804 51.8873 15.0702 51.8873C17.4743 51.8873 19.8105 51.0976 21.7282 49.6226C22.0531 49.3726 22.1212 48.8967 21.8804 48.5594C21.6396 48.2222 21.1809 48.1514 20.8558 48.4014C16.9898 51.3755 11.4722 50.917 8.02134 47.3358L4.38569 43.5632C2.49438 41.6007 1.45698 38.9922 1.4644 36.2183C1.47173 33.5056 2.4895 30.9712 4.33042 29.0821C6.09271 27.2736 8.42738 26.235 10.9044 26.1576C13.0608 26.0902 15.0372 24.7232 15.9398 22.6751C16.2431 21.9868 16.658 21.3612 17.1733 20.8157C18.3454 19.5746 19.9248 18.8862 21.6204 18.8773H21.6542C23.2974 18.8773 24.8462 19.5078 26.0485 20.6589L21.1928 25.5146C20.9547 25.7527 20.8218 26.0729 20.8188 26.416C20.8158 26.7592 20.9429 27.0817 21.1766 27.3243L23.6695 29.9113C23.9006 30.1511 24.2069 30.2827 24.5333 30.2827H24.5449C24.8755 30.2796 25.184 30.1417 25.4135 29.8946L30.0926 24.8557C31.2095 26.1119 31.8177 27.7325 31.8094 29.4508C31.8008 31.2104 31.1375 32.8494 29.9415 34.0658C29.4159 34.6004 28.8129 35.0311 28.1497 35.3458C26.176 36.2823 24.8587 38.3335 24.7939 40.5713C24.7346 42.6137 24.094 44.5641 22.9412 46.2115C22.7036 46.5511 22.7763 47.0265 23.1036 47.2731C23.2337 47.3712 23.3841 47.4184 23.5334 47.4184C23.7598 47.4184 23.9833 47.3094 24.1266 47.1047C25.4528 45.2093 26.1898 42.9659 26.2579 40.6171C26.3062 38.9528 27.2878 37.4264 28.7588 36.7283C29.5767 36.3402 30.3195 35.8097 30.9667 35.1516C32.4441 33.649 33.2635 31.6272 33.2741 29.4586C33.2844 27.322 32.5165 25.3094 31.1095 23.7606L42.3876 11.6154C42.4253 11.6189 42.4632 11.6211 42.5011 11.6211C42.7817 11.6211 43.0632 11.5271 43.2984 11.336L44.2953 10.5263L44.7115 10.9582C44.8545 11.1066 45.042 11.1808 45.2294 11.1808C45.4168 11.1808 45.6043 11.1066 45.7473 10.9581C46.0334 10.6613 46.0334 10.18 45.7472 9.8833L45.4574 9.5825L46.2676 8.92453L46.7823 9.45868C46.9253 9.60717 47.1128 9.68132 47.3002 9.68132C47.4875 9.68132 47.6752 9.60717 47.8181 9.45868C48.1045 9.16184 48.1045 8.68071 47.8181 8.38387L47.4299 7.98071L48.2398 7.32269L48.7488 7.8509C48.8917 7.99925 49.0794 8.07354 49.2667 8.07354C49.4544 8.07354 49.6417 7.99939 49.7846 7.8509C50.071 7.55377 50.071 7.0725 49.7851 6.77566ZM41.1412 10.7669L39.6295 12.3949L38.0562 10.7621L39.625 9.19335L41.1412 10.7669ZM37.42 14.7742L35.7632 13.055L37.0011 11.8171L38.6129 13.4896L37.42 14.7742ZM34.8833 17.5061L33.1308 15.6875L34.7083 14.11L36.4033 15.8692L34.8833 17.5061ZM32.3464 20.2379L30.4984 18.32L32.0758 16.7425L33.8666 18.6008L32.3464 20.2379ZM27.2271 25.7508L25.1859 23.6326L26.7871 22.0314L28.7702 24.0892L27.2271 25.7508ZM29.7868 22.9943L27.842 20.9763L29.4433 19.375L31.3297 21.3327L29.7868 22.9943ZM24.5304 28.6549L22.3875 26.431L24.1309 24.6875L26.2105 26.8456L24.5304 28.6549Z" fill="#FFFFFF"/>
<path d="M14.1489 41.6021C14.3363 41.6021 14.5238 41.5279 14.6669 41.3795C14.9529 41.0826 14.9529 40.6013 14.6669 40.3046L11.1611 36.6666C10.875 36.3697 10.4113 36.3697 10.1253 36.6666C9.83923 36.9634 9.83923 37.4446 10.1253 37.7414L13.631 41.3795C13.774 41.5278 13.9615 41.6021 14.1489 41.6021Z" fill="#FFFFFF"/>
<path d="M8.13787 38.7288C7.85183 39.0257 7.85183 39.5069 8.13787 39.8037L11.6437 43.4417C11.7867 43.5901 11.9742 43.6643 12.1616 43.6643C12.349 43.6643 12.5365 43.5902 12.6796 43.4417C12.9656 43.1449 12.9656 42.6636 12.6796 42.3669L9.17381 38.7288C8.88758 38.432 8.42391 38.432 8.13787 38.7288Z" fill="#FFFFFF"/>
<path d="M44.7995 4.32192L43.6031 5.56355C43.3171 5.86039 43.3171 6.34166 43.6032 6.6385C43.7462 6.78685 43.9337 6.86105 44.1211 6.86105C44.3085 6.86105 44.496 6.78685 44.639 6.63836L45.8355 5.39676C46.1215 5.09992 46.1214 4.61864 45.8353 4.32182C45.5493 4.02499 45.0856 4.02509 44.7995 4.32192Z" fill="#FFFFFF"/>
</svg>
