<svg width="50" height="50" viewBox="0 0 50 50" fill="#FFFFFF" xmlns="http://www.w3.org/2000/svg">
<path d="M28.1085 21.8933C27.724 21.5088 27.1007 21.5084 26.7158 21.8929L21.8925 26.7139C21.5079 27.0985 21.5076 27.7222 21.8921 28.1071C22.0843 28.2993 22.3365 28.3955 22.5886 28.3955C22.8404 28.3955 23.0926 28.2993 23.2848 28.1071L28.1081 23.2861C28.493 22.9015 28.493 22.2778 28.1085 21.8933V21.8933Z" fill="#FFFFFF"/>
<path d="M46.2298 29.6573C44.6631 28.5648 42.729 27.9125 41.0555 27.9125C40.5116 27.9125 40.0706 28.3535 40.0706 28.8975V39.447C39.1005 38.7249 37.8466 38.2877 36.4783 38.2877C33.4097 38.2877 30.9134 40.4777 30.9134 43.1698C30.9134 45.8618 33.4097 48.0518 36.4783 48.0518C39.5449 48.0518 42.0401 45.8618 42.0401 43.1698V29.9763C44.4327 30.4134 47.0885 32.3059 47.0885 34.2357V38.0054C47.0885 38.5494 47.5295 38.9904 48.073 38.9904C48.617 38.9904 49.058 38.5494 49.058 38.0054V34.2357C49.058 32.5554 48.0536 30.9292 46.2298 29.6573V29.6573ZM36.4783 46.0823C34.4962 46.0823 32.8833 44.7758 32.8833 43.1698C32.8833 41.5638 34.4962 40.2572 36.4783 40.2572C38.4592 40.2572 40.0706 41.5638 40.0706 43.1698C40.0706 44.7758 38.4592 46.0823 36.4783 46.0823Z" fill="#FFFFFF"/>
<path d="M4.38879 22.5414C6.74321 22.5414 8.65856 20.8454 8.65856 18.7603C8.65856 18.7023 8.65627 18.6447 8.65322 18.5871C8.65665 18.5551 8.65856 18.5223 8.65856 18.4891V10.1979C8.75278 10.1872 8.84777 10.17 8.94237 10.1445L19.6063 7.30713V10.6892C18.9422 10.3116 18.1529 10.0915 17.3064 10.0915C14.952 10.0915 13.0371 11.7867 13.0371 13.8699C13.0371 15.955 14.952 17.6514 17.3064 17.6514C19.6609 17.6514 21.5758 15.955 21.5758 13.8699V2.32516C21.5758 1.72396 21.3222 1.1838 20.8793 0.843536C20.4455 0.510896 19.8768 0.405992 19.3198 0.554383L8.43617 3.44744C8.43578 3.44782 8.4354 3.44782 8.43502 3.44782C7.43939 3.71408 6.68866 4.70819 6.68866 5.76028V15.577C6.02414 15.1993 5.23527 14.9788 4.38879 14.9788C2.03437 14.9788 0.119019 16.6752 0.119019 18.7603C0.119019 20.8454 2.03437 22.5414 4.38879 22.5414ZM17.3064 15.6815C16.0384 15.6815 15.0066 14.869 15.0066 13.8703C15.0066 12.8727 16.0384 12.0614 17.3064 12.0614C18.5748 12.0614 19.6063 12.8727 19.6063 13.8703C19.6063 14.869 18.5748 15.6815 17.3064 15.6815ZM8.65818 5.76028C8.65818 5.59548 8.82336 5.38339 8.94276 5.35096L19.6063 2.51665V4.93898C19.6063 5.09805 19.4373 5.31396 19.3194 5.34524L8.65818 8.18183V5.76028ZM4.38879 16.9487C5.63543 16.9487 6.68866 17.7784 6.68866 18.7603C6.68866 19.7422 5.63543 20.5719 4.38879 20.5719C3.14215 20.5719 2.08892 19.7422 2.08892 18.7603C2.08892 17.7784 3.14215 16.9487 4.38879 16.9487Z" fill="#FFFFFF"/>
<path d="M37.3602 23.336C37.7497 23.3761 38.14 23.3959 38.5294 23.3959C40.5325 23.3959 42.5131 22.8703 44.2457 21.8754C44.5929 21.9921 44.9549 22.0513 45.3173 22.0513C46.1725 22.0513 47.0274 21.7263 47.6782 21.0759C48.3072 20.4491 48.654 19.6118 48.6547 18.7184C48.6551 18.3476 48.5948 17.9867 48.4804 17.6461C49.6687 15.5766 50.1863 13.1535 49.9403 10.7625C49.6717 8.15553 48.5014 5.69735 46.644 3.84113C44.7863 1.98567 42.3277 0.816473 39.7208 0.548682C37.3293 0.302635 34.904 0.820669 32.833 2.00894C31.6684 1.61756 30.3294 1.8842 29.4036 2.80964C28.7742 3.4383 28.4278 4.27677 28.4278 5.17017C28.4278 5.53905 28.4881 5.89877 28.6017 6.23828C27.4131 8.30736 26.895 10.7304 27.1415 13.1219C27.1773 13.4694 27.2304 13.8142 27.2975 14.1556L5.58396 37.0071C4.11989 38.5494 4.12714 40.9145 5.60227 42.3923L6.46172 43.2506C5.44282 47.3296 1.14673 47.536 0.952942 47.5432C0.410877 47.5608 -0.015223 48.0136 0.000417141 48.556C0.0160573 49.0901 0.453601 49.5124 0.984223 49.5124C0.994141 49.5124 1.00368 49.5124 1.0136 49.512C1.07921 49.5101 2.64208 49.4559 4.3297 48.6571C5.61448 48.0487 7.1724 46.9081 8.02345 44.81L8.07762 44.8642C8.81843 45.6065 9.78392 45.9781 10.757 45.9781C11.7222 45.9781 12.6945 45.613 13.4636 44.8817L21.8597 36.8881C22.2533 36.5131 22.269 35.8898 21.8936 35.4957C21.5186 35.1017 20.8953 35.0864 20.5013 35.4614L12.1059 43.4547C11.3426 44.1802 10.1856 44.1879 9.47036 43.4715L6.99501 40.9999C6.28052 40.2839 6.28815 39.1258 7.0118 38.3636L27.9551 16.3231C28.5281 17.7044 29.3685 18.974 30.4385 20.0432C31.5066 21.1109 32.7754 21.9502 34.1563 22.5224L28.1321 28.2413C28.1264 28.2467 28.1211 28.252 28.1154 28.2574L26.934 29.4331C26.5483 29.8164 26.5468 30.4401 26.9301 30.8258C27.1228 31.0192 27.3757 31.1161 27.6286 31.1161C27.8796 31.1161 28.131 31.0207 28.3233 30.8292L29.4963 29.6619L36.3249 23.1796C36.6667 23.2472 37.012 23.3002 37.3602 23.336V23.336ZM45.2517 5.23425C48.0562 8.03728 48.7806 12.3231 47.1838 15.8593L34.6209 3.30517C38.1587 1.70911 42.4463 2.43275 45.2517 5.23425ZM30.7959 4.20276C31.063 3.93574 31.4135 3.8026 31.7641 3.8026C32.1151 3.8026 32.4656 3.93574 32.7327 4.20276L46.287 17.7475C46.5441 18.0047 46.6856 18.3487 46.6852 18.7169C46.6848 19.0834 46.5437 19.4256 46.2866 19.6816C45.7522 20.216 44.882 20.216 44.3472 19.6816L30.7959 6.13719C30.5388 5.88008 30.3973 5.53676 30.3973 5.16978C30.3973 4.80281 30.5388 4.45949 30.7959 4.20276ZM29.8983 8.02469L42.4589 20.5796C38.922 22.1768 34.6354 21.4531 31.8309 18.6501C29.0248 15.8455 28.3004 11.5601 29.8983 8.02469V8.02469Z" fill="#FFFFFF"/>
<path d="M25.035 32.381C24.6173 32.0331 23.9963 32.0892 23.648 32.5073L23.6342 32.5237C23.286 32.9418 23.3424 33.5628 23.7601 33.9107C23.9444 34.0644 24.1679 34.1392 24.3903 34.1392C24.6722 34.1392 24.9526 34.0183 25.1472 33.7848L25.1613 33.768C25.5092 33.3503 25.4527 32.7293 25.035 32.381V32.381Z" fill="#FFFFFF"/>
</svg>

