<svg width="50" height="44" viewBox="0 0 50 44" fill="#FFFFFF" xmlns="http://www.w3.org/2000/svg">
<path d="M5.25833 17.0667C6.23333 17.5 6.23333 17.4417 10.2583 18.2417C10.7417 18.6983 11.387 18.9436 12.0517 18.9233C12.7163 18.903 13.3455 18.6187 13.8 18.1333L16.2167 19.0917L15.9583 19.4583C14.9177 20.9345 14.8078 22.8741 15.675 24.4583C17.5 27.7333 20.2167 32 23.3333 34.1167V41.9083C23.3333 42.8288 24.0795 43.575 25 43.575H38.3333C39.2538 43.575 40 42.8288 40 41.9083V34.8833C41.9749 34.3032 43.3318 32.4917 43.3333 30.4333V29.8167L44.3167 30.2083C45.9713 30.8649 47.8499 30.1054 48.5833 28.4833L49.7 25.9833C50.427 24.3633 49.7564 22.4577 48.175 21.65L45 20.05V14.825C45.0041 13.3877 44.1827 12.0757 42.8881 11.4515C41.5934 10.8272 40.0553 11.0017 38.9333 11.9C38.5369 10.7597 37.6102 9.88379 36.4494 9.55209C35.2886 9.22039 34.039 9.47459 33.1 10.2333C32.7004 9.09569 31.7738 8.22259 30.6144 7.89129C29.455 7.56009 28.207 7.81179 27.2667 8.56669C26.789 7.25019 25.6148 6.31176 24.2254 6.13611C22.8361 5.96046 21.4652 6.57715 20.675 7.73329L18.8917 6.82499C18.9616 6.1652 18.7665 5.50465 18.3491 4.98884C17.9318 4.47303 17.3265 4.14428 16.6667 4.07499C13.225 1.46666 13.4167 1.57499 12.5 1.12499C10.3825 0.149663 7.96135 0.0685529 5.78333 0.899993C2.47991 2.15747 0.254809 5.27579 0.140084 8.80859C0.0253585 12.3414 2.04346 15.5975 5.25833 17.0667ZM14.6083 16.6667L18.3417 8.33329L20.0583 9.16669C20 9.74999 20 9.09999 20 13.6667L17.2 17.675L14.6083 16.6667ZM39.25 33.3333C38.6676 33.5545 38.2964 34.1282 38.3333 34.75V41.9083H25V35C25.6108 35.2461 26.2588 35.387 26.9167 35.4167C27.3769 35.4167 27.75 35.0436 27.75 34.5833C27.75 34.1231 27.3769 33.75 26.9167 33.75C23.1333 33.6667 18.9667 27 17.1417 23.6667C16.5813 22.6363 16.6523 21.3775 17.325 20.4167L21.725 14.1333C21.8875 13.8979 22.1594 13.7623 22.4452 13.7742C22.7311 13.786 22.9908 13.9436 23.1333 14.1917C24.05 15.8583 22.975 18.1167 22.2583 19.2833C21.938 19.769 21.8746 20.3805 22.0887 20.9215C22.3028 21.4625 22.7674 21.8651 23.3333 22C25.5092 22.6662 27.616 23.5396 29.625 24.6083C31.4729 25.3602 32.5819 27.2632 32.325 29.2417C32.2848 29.5394 32.4065 29.8359 32.6442 30.0196C32.882 30.2033 33.1996 30.2462 33.4776 30.1321C33.7555 30.0181 33.9515 29.7644 33.9917 29.4667C34.1297 28.4449 33.9975 27.4048 33.6083 26.45C34.9279 27.2262 36.5917 27.0965 37.775 26.125C38.3581 27.732 39.9683 28.7285 41.6667 28.5333V30.4333C41.664 31.859 40.6504 33.0824 39.25 33.35V33.3333ZM47.425 23.1333C48.2326 23.5396 48.5691 24.5157 48.1833 25.3333L47.0667 27.8333C46.6893 28.6331 45.7529 28.9989 44.9333 28.6667L43.3333 28.025V27.9417C44.3755 27.2472 45.001 26.0773 45 24.825V21.9167L47.425 23.1333ZM41.25 12.7417C42.4006 12.7417 43.3333 13.6744 43.3333 14.825V24.825C43.3333 25.9756 42.4006 26.9083 41.25 26.9083C40.0994 26.9083 39.1667 25.9756 39.1667 24.825V14.825C39.1667 13.6744 40.0994 12.7417 41.25 12.7417ZM35.4167 11.075C36.5673 11.075 37.5 12.0077 37.5 13.1583V23.1583C37.5 24.3089 36.5673 25.2417 35.4167 25.2417C34.2661 25.2417 33.3333 24.3089 33.3333 23.1583V13.1583C33.3333 12.0077 34.2661 11.075 35.4167 11.075ZM29.5833 9.40829C30.732 9.41289 31.6621 10.343 31.6667 11.4917V21.4917C31.6685 22.2158 31.2926 22.8886 30.675 23.2667C29.7667 22.7583 28.4167 22.1417 27.5417 21.7583C27.4833 21.3 27.5417 22.925 27.5417 11.4917C27.5414 10.3572 28.449 9.43099 29.5833 9.40829ZM23.75 7.74169C24.8987 7.74619 25.8288 8.67629 25.8333 9.82499V19.825C25.8335 20.218 25.7207 20.6027 25.5083 20.9333C24.775 20.6583 24.1917 20.475 23.75 20.3583C23.7069 20.3475 23.672 20.316 23.657 20.2742C23.6419 20.2324 23.6487 20.1858 23.675 20.15C25.2417 17.5917 25.575 15.15 24.6 13.3917C24.0365 12.3407 22.7981 11.8482 21.6667 12.225C21.6667 9.72499 21.6167 9.56669 21.825 9.05829C22.136 8.26629 22.8991 7.74429 23.75 7.74169ZM17.1833 6.90833C17.0667 7.14999 12.8 16.6417 12.725 16.825C12.5731 17.1296 12.2512 17.3112 11.9119 17.2837C11.5726 17.2562 11.2842 17.0251 11.1833 16.7C11.0417 16.3083 10.8167 17.0083 15.6583 6.24166C15.7492 6.03871 15.9175 5.8805 16.1256 5.80225C16.3338 5.72399 16.5646 5.73218 16.7667 5.82499C17.1578 6.01309 17.3391 6.46989 17.1833 6.87499V6.90833ZM14.7333 4.71666C14.1917 5.20833 14.4917 4.75833 9.73333 15.4C9.59647 15.7101 9.52281 16.0444 9.51666 16.3833L6.75 15.85L12.5 3.03333L14.7333 4.71666ZM2.4 6.16666C3.87151 2.88009 7.58116 1.22817 11.0083 2.33333L5.23333 15.1667C2.12788 13.3314 0.905928 9.44989 2.4 6.16666Z" fill="#FFFFFF"/>
</svg>
