<svg width="50" height="26" viewBox="0 0 50 26" fill="#FFFFFF" xmlns="http://www.w3.org/2000/svg">
<path d="M48.9583 0.5H1.0417C0.465918 0.5 0 0.9659 0 1.5417V24.4584C0 25.0341 0.465918 25.5 1.0417 25.5H48.9584C49.5342 25.5 50.0001 25.0341 50.0001 24.4583V1.5417C50 0.9659 49.5341 0.5 48.9583 0.5ZM6.25 23.4167H2.0833V2.5833H4.1666V14.0416C4.1666 14.6174 4.63252 15.0833 5.2083 15.0833H6.25V23.4167ZM14.5833 23.4167H8.3333V15.0834H9.375C9.95078 15.0834 10.4167 14.6175 10.4167 14.0417V2.5833H12.5V14.0416C12.5 14.6174 12.9659 15.0833 13.5417 15.0833H14.5834V23.4167H14.5833ZM25 23.4167H16.6667V15.0834H17.7084C18.2842 15.0834 18.7501 14.6175 18.7501 14.0417V2.5833H22.9168V14.0416C22.9168 14.6174 23.3827 15.0833 23.9585 15.0833H25V23.4167ZM33.3333 23.4167H27.0833V15.0834H28.125C28.7008 15.0834 29.1667 14.6175 29.1667 14.0417V2.5833H31.25V14.0416C31.25 14.6174 31.7159 15.0833 32.2917 15.0833H33.3334V23.4167H33.3333ZM41.6667 23.4167H35.4167V15.0834H36.4584C37.0342 15.0834 37.5001 14.6175 37.5001 14.0417V2.5833H39.5834V14.0416C39.5834 14.6174 40.0493 15.0833 40.6251 15.0833H41.6668V23.4167H41.6667ZM47.9167 23.4167H43.75V15.0834H44.7917C45.3675 15.0834 45.8334 14.6175 45.8334 14.0417V2.5833H47.9167V23.4167Z" fill="#FFFFFF"/>
</svg>
