<svg width="50" height="50" viewBox="0 0 50 50" fill="none" xmlns="http://www.w3.org/2000/svg">
<g clip-path="url(#clip0)">
<path d="M27.7098 24.3615L22.1348 29.9365C21.5628 30.5084 20.6357 30.5085 20.0636 29.9365C19.4917 29.3647 19.4917 28.4373 20.0636 27.8654L25.6386 22.2904C24.2834 20.6505 23.3206 18.7935 22.7512 16.8446L1.59264 39.2686C-0.581158 41.5889 -0.522771 45.1674 1.72533 47.4155L2.58464 48.2748C4.83284 50.5232 8.41165 50.581 10.7353 48.404L33.1555 27.249C31.2067 26.6796 29.3496 25.7167 27.7098 24.3615V24.3615Z" fill="#0087D1"/>
<path d="M27.7025 4.74245L45.2587 22.2977C43.1273 23.9868 40.4325 24.9954 37.5024 24.9954C30.6004 24.9954 25.0048 19.3998 25.0048 12.4978C25.0048 9.56779 26.0134 6.87387 27.7025 4.74245Z" fill="#0087D1"/>
<path d="M49.9999 12.4979C49.9999 15.4143 49.0001 18.0974 47.3266 20.224L29.7763 2.67361C31.9028 1.0001 34.5859 0.000289917 37.5023 0.000289917C44.4043 0.000289917 49.9999 5.5959 49.9999 12.4979Z" fill="#0087D1"/>
</g>
<defs>
<clipPath id="clip0">
<rect width="50" height="50" fill="white"/>
</clipPath>
</defs>
</svg>
