<svg width="144" height="144" viewBox="0 0 144 144" fill="none" xmlns="http://www.w3.org/2000/svg">
<circle cx="72" cy="72" r="72" fill="white"/>
<path d="M79.136 59.0143C78.3256 58.2039 77.0122 58.2031 76.2009 59.0135L66.0368 69.1729C65.2264 69.9831 65.2256 71.2975 66.036 72.1087C66.441 72.5137 66.9726 72.7164 67.5039 72.7164C68.0345 72.7164 68.5658 72.5137 68.9708 72.1087L79.1351 61.9491C79.9462 61.1389 79.9462 59.8245 79.136 59.0143Z" fill="#0087D1"/>
<path d="M117.323 75.3755C114.022 73.0733 109.946 71.6986 106.42 71.6986C105.273 71.6986 104.344 72.6279 104.344 73.7742V96.0054C102.3 94.4837 99.6572 93.5624 96.7738 93.5624C90.3074 93.5624 85.0467 98.1775 85.0467 103.85C85.0467 109.523 90.3074 114.139 96.7738 114.139C103.236 114.139 108.494 109.523 108.494 103.85V76.0476C113.536 76.9687 119.133 80.9568 119.133 85.0236V92.9677C119.133 94.1139 120.062 95.0433 121.208 95.0433C122.354 95.0433 123.283 94.1139 123.283 92.9677V85.0236C123.283 81.4826 121.167 78.0557 117.323 75.3755ZM96.7738 109.988C92.5968 109.988 89.198 107.235 89.198 103.85C89.198 100.466 92.5968 97.7128 96.7738 97.7128C100.948 97.7128 104.344 100.466 104.344 103.85C104.344 107.235 100.948 109.988 96.7738 109.988Z" fill="#0087D1"/>
<path d="M29.1511 60.38C34.1126 60.38 38.1488 56.806 38.1488 52.4121C38.1488 52.2899 38.144 52.1685 38.1376 52.047C38.1448 51.9795 38.1488 51.9104 38.1488 51.8404V34.3682C38.3474 34.3458 38.5476 34.3096 38.7469 34.2558L61.2193 28.2766V35.4038C59.8197 34.608 58.1565 34.1441 56.3727 34.1441C51.4112 34.1441 47.3756 37.7165 47.3756 42.1064C47.3756 46.5003 51.4112 50.0751 56.3727 50.0751C61.3341 50.0751 65.3695 46.5003 65.3695 42.1064V17.778C65.3695 16.5111 64.8351 15.3728 63.9018 14.6557C62.9877 13.9547 61.7891 13.7337 60.6155 14.0464L37.6802 20.143C37.6794 20.1438 37.6786 20.1438 37.6778 20.1438C35.5797 20.7049 33.9976 22.7998 33.9976 25.0168V45.7037C32.5973 44.9079 30.9349 44.4432 29.1511 44.4432C24.1896 44.4432 20.1533 48.018 20.1533 52.4121C20.1533 56.806 24.1896 60.38 29.1511 60.38ZM56.3727 45.9241C53.7007 45.9241 51.5261 44.2117 51.5261 42.1072C51.5261 40.0051 53.7007 38.2951 56.3727 38.2951C59.0455 38.2951 61.2193 40.0051 61.2193 42.1072C61.2193 44.2117 59.0455 45.9241 56.3727 45.9241ZM38.148 25.0168C38.148 24.6696 38.4961 24.2226 38.7477 24.1543L61.2193 18.1815V23.2861C61.2193 23.6213 60.8631 24.0763 60.6147 24.1422L38.148 30.1198V25.0168ZM29.1511 48.5944C31.7782 48.5944 33.9976 50.3429 33.9976 52.4121C33.9976 54.4812 31.7782 56.2296 29.1511 56.2296C26.524 56.2296 24.3045 54.4812 24.3045 52.4121C24.3045 50.3429 26.524 48.5944 29.1511 48.5944Z" fill="#0087D1"/>
<path d="M98.6319 62.0546C99.4528 62.139 100.275 62.1808 101.096 62.1808C105.317 62.1808 109.491 61.0732 113.142 58.9766C113.873 59.2225 114.636 59.3472 115.4 59.3472C117.202 59.3472 119.004 58.6624 120.375 57.2918C121.701 55.971 122.431 54.2063 122.433 52.3237C122.434 51.5423 122.307 50.7819 122.066 50.0641C124.57 45.703 125.661 40.5968 125.142 35.5582C124.576 30.0645 122.11 24.8843 118.196 20.9727C114.281 17.0626 109.1 14.5988 103.606 14.0344C98.5668 13.5159 93.4558 14.6076 89.0915 17.1117C86.6375 16.2869 83.8158 16.8488 81.8647 18.799C80.5384 20.1238 79.8084 21.8907 79.8084 23.7734C79.8084 24.5507 79.9354 25.3088 80.1749 26.0242C77.6702 30.3844 76.5785 35.4907 77.0977 40.5302C77.1735 41.2624 77.2852 41.9892 77.4266 42.7087L31.6693 90.864C28.584 94.1139 28.5993 99.098 31.7079 102.212L33.519 104.021C31.3718 112.617 22.3186 113.052 21.9103 113.067C20.7679 113.104 19.87 114.058 19.903 115.201C19.9359 116.327 20.858 117.217 21.9762 117.217C21.9971 117.217 22.0172 117.217 22.0381 117.216C22.1763 117.212 25.4698 117.098 29.0261 115.414C31.7336 114.132 35.0166 111.728 36.8101 107.307L36.9242 107.421C38.4853 108.986 40.5199 109.769 42.5707 109.769C44.6045 109.769 46.6536 108.999 48.2742 107.458L65.9674 90.6131C66.797 89.8229 91.2124 62.5553 90.4213 61.725C89.6313 60.8946 63.9352 86.8164 63.1049 87.6067L45.4131 104.451C43.8046 105.98 41.3664 105.996 39.8591 104.486L34.6428 99.278C33.1372 97.7691 33.1532 95.3286 34.6782 93.7224L78.8124 47.2763C80.02 50.187 81.7908 52.8623 84.0457 55.1155C86.2965 57.3657 88.9701 59.1342 91.8802 60.34L79.1855 72.3916C79.1734 72.4029 79.1622 72.4143 79.1501 72.4254L76.6604 74.9029C75.8477 75.7108 57.1434 97.4325 57.9511 98.2452C58.3572 98.6526 77.5914 78.4497 78.1244 78.4497C78.6533 78.4497 79.183 78.2487 79.5882 77.8451L82.0602 75.3853L96.4503 61.725C97.1705 61.8674 97.898 61.9791 98.6319 62.0546ZM115.262 23.9084C121.172 29.8153 122.698 38.8468 119.333 46.2987L92.8594 19.8432C100.314 16.4798 109.35 18.0048 115.262 23.9084ZM84.7989 21.7348C85.3615 21.172 86.1003 20.8915 86.8391 20.8915C87.5787 20.8915 88.3175 21.172 88.8802 21.7348L117.443 50.278C117.985 50.8198 118.283 51.5448 118.283 52.3204C118.282 53.093 117.984 53.8141 117.443 54.3535C116.316 55.4798 114.483 55.4798 113.356 54.3535L84.7989 25.8112C84.2571 25.2694 83.9589 24.5459 83.9589 23.7726C83.9589 22.9992 84.2571 22.2758 84.7989 21.7348ZM82.9075 29.7888L109.377 56.2459C101.923 59.6117 92.8898 58.0868 86.9799 52.1799C81.0664 46.2697 79.5399 37.2391 82.9075 29.7888Z" fill="#0087D1"/>
<path d="M72.659 81.1152C71.7788 80.382 70.4702 80.5001 69.7361 81.3813L69.7071 81.4159C68.9733 82.2969 69.0922 83.6055 69.9726 84.3388C70.3607 84.6627 70.8318 84.8203 71.3006 84.8203C71.8945 84.8203 72.4853 84.5653 72.8955 84.0735L72.9251 84.0381C73.6583 83.1577 73.5394 81.8491 72.659 81.1152Z" fill="#0087D1"/>
<ellipse cx="29.2682" cy="53.2683" rx="5.85366" ry="5.26829" fill="#0087D1"/>
<ellipse cx="55.6097" cy="42.7317" rx="6.43902" ry="5.26829" fill="#0087D1"/>
<rect x="35.1219" y="24.2272" width="28.2601" height="7.71836" transform="rotate(-15 35.1219 24.2272)" fill="#0087D1"/>
<rect x="82.1941" y="23.7988" width="7.16588" height="46.8969" transform="rotate(-45 82.1941 23.7988)" fill="#0087D1"/>
<rect x="29.5149" y="94.0347" width="69.6402" height="19.3663" transform="rotate(-44 29.5149 94.0347)" fill="#0087D1"/>
<ellipse cx="97.1707" cy="104.195" rx="8.19512" ry="7.02439" fill="#0087D1"/>
</svg>

